<svg aria-hidden="true" style="position: absolute; width: 0; height: 0; overflow: hidden;" version="1.1" xmlns="http://www.w3.org/2000/svg" xmlns:xlink="http://www.w3.org/1999/xlink">
<defs>
<symbol id="st" viewBox="0 0 17 32">
<title>st</title>
<path fill="#6187aa" style="fill: var(--color1, #6187aa)" d="M6.046 14.171h4.959l-6.603-14.171-3.316 3.527 4.959 10.643z"></path>
<path fill="#f9c67d" style="fill: var(--color2, #f9c67d)" d="M12.852 17.010h-8.765v-3.291c0.001-0.781 0.634-1.413 1.414-1.414h5.936c0.781 0.001 1.413 0.634 1.414 1.414v3.292zM5.641 15.457h5.658v-1.598h-5.658v1.598z"></path>
<path fill="#f4ba64" style="fill: var(--color3, #f4ba64)" d="M8.47 15.135c-0 0-0 0-0.001 0-4.636 0-8.395 3.758-8.395 8.395v0h2.094c0-3.48 2.821-6.301 6.301-6.301s6.301 2.821 6.301 6.301v0h2.095c0-4.636-3.758-8.395-8.395-8.395-0 0-0 0-0.001 0h0z"></path>
<path fill="#efb454" style="fill: var(--color4, #efb454)" d="M8.47 29.076c3.062-0.003 5.543-2.485 5.546-5.546v-0h-11.093c0.003 3.062 2.485 5.543 5.546 5.546h0z"></path>
<path fill="#f4b251" style="fill: var(--color5, #f4b251)" d="M8.47 17.984c-3.062 0.003-5.543 2.484-5.546 5.546v0h11.093c-0.004-3.062-2.485-5.542-5.546-5.546h-0z"></path>
<path fill="#efb454" style="fill: var(--color4, #efb454)" d="M8.47 29.831c-3.478-0.004-6.297-2.823-6.301-6.301v-0h-2.095c0 4.637 3.759 8.395 8.395 8.395s8.395-3.759 8.395-8.395v0h-2.095c-0.004 3.478-2.822 6.297-6.3 6.301h-0z"></path>
<path fill="#e8aa58" style="fill: var(--color6, #e8aa58)" d="M8.47 29.831c3.478-0.004 6.297-2.823 6.301-6.301v-0h-0.754c0 0.016 0 0.034 0 0.053 0 3.063-2.483 5.546-5.546 5.546s-5.546-2.483-5.546-5.546c0-0.019 0-0.037 0-0.056l-0 0.003h-0.755c0.004 3.478 2.822 6.297 6.3 6.301h0z"></path>
<path fill="#edda56" style="fill: var(--color7, #edda56)" d="M2.924 23.53c-0-0.016-0-0.034-0-0.053 0-3.063 2.483-5.546 5.546-5.546s5.546 2.483 5.546 5.546c0 0.019-0 0.037-0 0.056l0-0.003h0.754c0-3.48-2.821-6.301-6.301-6.301s-6.301 2.821-6.301 6.301v0h0.754z"></path>
<path fill="#eac757" style="fill: var(--color8, #eac757)" d="M11.982 22.744c0.071-0.069 0.115-0.166 0.115-0.273 0-0.191-0.14-0.349-0.324-0.376l-0.002-0-1.623-0.236c-0.323 1.127-1.075 2.116-1.875 2.917-0.73 0.686-1.595 1.123-2.522 1.407l-0.056 0.324c-0.004 0.019-0.006 0.042-0.006 0.065 0 0.21 0.17 0.38 0.38 0.38 0.065 0 0.126-0.016 0.179-0.045l-0.002 0.001 1.804-0.947c0.051-0.028 0.112-0.044 0.177-0.044s0.126 0.016 0.179 0.045l-0.002-0.001 1.804 0.947c0.051 0.028 0.112 0.044 0.177 0.044 0.21 0 0.38-0.17 0.38-0.38 0-0.023-0.002-0.045-0.006-0.067l0 0.002-0.344-2.005c-0.003-0.019-0.005-0.042-0.005-0.064 0-0.107 0.044-0.203 0.115-0.272l0-0z"></path>
<path fill="#edda56" style="fill: var(--color7, #edda56)" d="M10.149 21.86l-0.394-0.057c-0.126-0.019-0.231-0.098-0.285-0.206l-0.001-0.002-0.902-1.825c-0.063-0.127-0.192-0.212-0.341-0.212s-0.277 0.085-0.34 0.21l-0.001 0.002-0.902 1.825c-0.055 0.11-0.16 0.189-0.284 0.208l-0.002 0-2.011 0.293c-0.185 0.027-0.326 0.185-0.326 0.376 0 0.107 0.044 0.203 0.115 0.272l0 0 1.458 1.421c0.071 0.069 0.115 0.165 0.115 0.272 0 0.023-0.002 0.045-0.006 0.067l0-0.002-0.289 1.683c0.927-0.285 1.792-0.722 2.522-1.407 0.8-0.8 1.553-1.789 1.873-2.917z"></path>
<path fill="#f9c67d" style="fill: var(--color2, #f9c67d)" d="M8.47 32c-4.67 0-8.47-3.8-8.47-8.47s3.8-8.47 8.47-8.47 8.47 3.8 8.47 8.47-3.8 8.47-8.47 8.47zM8.47 15.209c-4.588 0-8.32 3.732-8.32 8.32s3.732 8.32 8.32 8.32 8.32-3.732 8.32-8.32-3.734-8.319-8.32-8.319z"></path>
<path fill="#7597bc" style="fill: var(--color9, #7597bc)" d="M10.95 14.171h-4.96l6.603-14.171 3.316 3.527-4.959 10.643z"></path>
<path fill="#497291" style="fill: var(--color10, #497291)" d="M4.402 0h8.191l-1.896 4.068h-4.4l-1.896-4.068z"></path>
<path fill="#3a637c" style="fill: var(--color11, #3a637c)" d="M10.698 4.068l1.896-4.068h-1.588l-0.307 4.068z"></path>
</symbol>
<symbol id="nd" viewBox="0 0 17 32">
<title>nd</title>
<path fill="#6187aa" style="fill: var(--color1, #6187aa)" d="M6.046 14.171h4.959l-6.603-14.171-3.316 3.527 4.959 10.643z"></path>
<path fill="#f4f4f4" style="fill: var(--color12, #f4f4f4)" d="M12.852 17.010h-8.765v-3.291c0.001-0.781 0.634-1.413 1.414-1.414h5.936c0.781 0.001 1.413 0.634 1.414 1.414v3.292zM5.641 15.457h5.658v-1.598h-5.658v1.598z"></path>
<path fill="#edeceb" style="fill: var(--color13, #edeceb)" d="M8.47 15.135c-4.636 0-8.395 3.758-8.395 8.395v0h2.094c0-3.48 2.821-6.301 6.301-6.301s6.301 2.821 6.301 6.301v0h2.094c0-4.636-3.758-8.395-8.395-8.395v0z"></path>
<path fill="#ddd" style="fill: var(--color14, #ddd)" d="M8.47 29.076c3.062-0.003 5.543-2.485 5.546-5.546v-0h-11.093c0.003 3.062 2.485 5.543 5.546 5.546h0z"></path>
<path fill="#edeceb" style="fill: var(--color13, #edeceb)" d="M8.47 17.984c-3.062 0.003-5.543 2.484-5.546 5.546v0h11.093c-0.004-3.062-2.485-5.542-5.546-5.546h-0z"></path>
<path fill="#e0dfde" style="fill: var(--color15, #e0dfde)" d="M8.47 29.831c-3.478-0.004-6.297-2.823-6.301-6.301v-0h-2.094c0 4.637 3.759 8.395 8.395 8.395s8.395-3.759 8.395-8.395v0h-2.095c-0.004 3.478-2.822 6.297-6.3 6.301h-0z"></path>
<path fill="#f7f7f7" style="fill: var(--color16, #f7f7f7)" d="M8.47 29.831c3.478-0.004 6.297-2.823 6.301-6.301v-0h-0.754c0 0.016 0 0.034 0 0.053 0 3.063-2.483 5.546-5.546 5.546s-5.546-2.483-5.546-5.546c0-0.019 0-0.037 0-0.056l-0 0.003h-0.755c0.004 3.478 2.822 6.297 6.3 6.301h0z"></path>
<path fill="#fff" style="fill: var(--color17, #fff)" d="M2.924 23.53c-0-0.016-0-0.034-0-0.053 0-3.063 2.483-5.546 5.546-5.546s5.546 2.483 5.546 5.546c0 0.019-0 0.037-0 0.056l0-0.003h0.754c0-3.48-2.821-6.301-6.301-6.301s-6.301 2.821-6.301 6.301v0h0.754z"></path>
<path fill="#efefef" style="fill: var(--color18, #efefef)" d="M11.982 22.744c0.071-0.069 0.115-0.166 0.115-0.273 0-0.191-0.14-0.349-0.324-0.376l-0.002-0-1.62-0.236c-0.323 1.127-1.075 2.116-1.875 2.917-0.73 0.686-1.595 1.123-2.522 1.407l-0.056 0.324c-0.004 0.019-0.006 0.042-0.006 0.065 0 0.21 0.17 0.38 0.38 0.38 0.065 0 0.126-0.016 0.179-0.045l-0.002 0.001 1.804-0.947c0.051-0.028 0.112-0.044 0.177-0.044s0.126 0.016 0.179 0.045l-0.002-0.001 1.804 0.947c0.051 0.028 0.112 0.044 0.177 0.044 0.21 0 0.38-0.17 0.38-0.38 0-0.023-0.002-0.045-0.006-0.067l0 0.002-0.344-2.005c-0.003-0.019-0.005-0.042-0.005-0.064 0-0.107 0.044-0.203 0.115-0.272l0-0z"></path>
<path fill="#f7f7f7" style="fill: var(--color16, #f7f7f7)" d="M10.151 21.86l-0.394-0.057c-0.126-0.019-0.231-0.098-0.285-0.206l-0.001-0.002-0.902-1.825c-0.063-0.127-0.192-0.212-0.341-0.212s-0.277 0.085-0.34 0.21l-0.001 0.002-0.902 1.825c-0.055 0.11-0.16 0.189-0.284 0.208l-0.002 0-2.015 0.293c-0.185 0.027-0.326 0.185-0.326 0.376 0 0.107 0.044 0.203 0.115 0.272l0 0 1.458 1.421c0.071 0.069 0.115 0.165 0.115 0.272 0 0.023-0.002 0.045-0.006 0.067l0-0.002-0.289 1.683c0.927-0.285 1.792-0.722 2.522-1.407 0.802-0.8 1.555-1.789 1.877-2.917z"></path>
<path fill="#fff" style="fill: var(--color17, #fff)" d="M8.47 32c-4.67 0-8.47-3.8-8.47-8.47s3.8-8.47 8.47-8.47 8.47 3.8 8.47 8.47-3.8 8.47-8.47 8.47zM8.47 15.209c-4.588 0-8.32 3.732-8.32 8.32s3.732 8.32 8.32 8.32 8.32-3.732 8.32-8.32-3.732-8.319-8.32-8.319z"></path>
<path fill="#7597bc" style="fill: var(--color9, #7597bc)" d="M10.95 14.171h-4.96l6.603-14.171 3.316 3.527-4.959 10.643z"></path>
<path fill="#497291" style="fill: var(--color10, #497291)" d="M4.402 0h8.191l-1.896 4.068h-4.4l-1.896-4.068z"></path>
<path fill="#3a637c" style="fill: var(--color11, #3a637c)" d="M10.698 4.068l1.896-4.068h-1.588l-0.307 4.068z"></path>
</symbol>
<symbol id="rd" viewBox="0 0 17 32">
<title>rd</title>
<path fill="#6187aa" style="fill: var(--color1, #6187aa)" d="M6.046 14.171h4.959l-6.603-14.171-3.316 3.527 4.959 10.643z"></path>
<path fill="#c19d85" style="fill: var(--color19, #c19d85)" d="M12.852 17.010h-8.765v-3.291c0.001-0.781 0.634-1.413 1.414-1.414h5.936c0.781 0.001 1.413 0.634 1.414 1.414v3.292zM5.641 15.457h5.658v-1.598h-5.658v1.598z"></path>
<path fill="#d3ac92" style="fill: var(--color20, #d3ac92)" d="M8.47 15.135c-4.636 0-8.395 3.758-8.395 8.395v0h2.094c0-3.48 2.821-6.301 6.301-6.301s6.301 2.821 6.301 6.301v0h2.094c0-4.636-3.758-8.395-8.395-8.395v0z"></path>
<path fill="#cca38d" style="fill: var(--color21, #cca38d)" d="M8.47 29.076c3.062-0.003 5.543-2.485 5.546-5.546v-0h-11.093c0.003 3.062 2.485 5.543 5.546 5.546h0z"></path>
<path fill="#d3ac92" style="fill: var(--color20, #d3ac92)" d="M8.47 17.984c-3.062 0.003-5.543 2.484-5.546 5.546v0h11.093c-0.004-3.062-2.485-5.542-5.546-5.546h-0z"></path>
<path fill="#c19d85" style="fill: var(--color19, #c19d85)" d="M8.47 29.831c-3.478-0.004-6.297-2.823-6.301-6.301v-0h-2.094c0 4.637 3.759 8.395 8.395 8.395s8.395-3.759 8.395-8.395v0h-2.095c-0.004 3.478-2.822 6.297-6.3 6.301h-0z"></path>
<path fill="#e2b79f" style="fill: var(--color22, #e2b79f)" d="M8.47 29.831c3.478-0.004 6.297-2.823 6.301-6.301v-0h-0.754c0 3.063-2.483 5.546-5.546 5.546s-5.546-2.483-5.546-5.546v0h-0.754c0.004 3.478 2.822 6.297 6.3 6.301h0z"></path>
<path fill="#eac4ac" style="fill: var(--color23, #eac4ac)" d="M2.924 23.53c0-3.063 2.483-5.546 5.546-5.546s5.546 2.483 5.546 5.546v0h0.754c0-3.48-2.821-6.301-6.301-6.301s-6.301 2.821-6.301 6.301v0h0.754z"></path>
<path fill="#e2bba6" style="fill: var(--color24, #e2bba6)" d="M11.982 22.744c0.071-0.069 0.115-0.166 0.115-0.273 0-0.191-0.14-0.349-0.324-0.376l-0.002-0-1.62-0.236c-0.323 1.127-1.075 2.116-1.875 2.917-0.73 0.686-1.595 1.123-2.522 1.407l-0.056 0.324c-0.004 0.019-0.006 0.042-0.006 0.065 0 0.21 0.17 0.38 0.38 0.38 0.065 0 0.126-0.016 0.179-0.045l-0.002 0.001 1.804-0.947c0.051-0.028 0.112-0.044 0.177-0.044s0.126 0.016 0.179 0.045l-0.002-0.001 1.804 0.947c0.051 0.028 0.112 0.044 0.177 0.044 0.21 0 0.38-0.17 0.38-0.38 0-0.023-0.002-0.045-0.006-0.067l0 0.002-0.344-2.005c-0.003-0.019-0.005-0.042-0.005-0.064 0-0.107 0.044-0.203 0.115-0.272l0-0z"></path>
<path fill="#eac4ac" style="fill: var(--color23, #eac4ac)" d="M10.151 21.86l-0.394-0.057c-0.126-0.019-0.231-0.098-0.285-0.206l-0.001-0.002-0.902-1.825c-0.063-0.127-0.192-0.212-0.341-0.212s-0.277 0.085-0.34 0.21l-0.001 0.002-0.902 1.825c-0.055 0.11-0.16 0.189-0.284 0.208l-0.002 0-2.015 0.293c-0.185 0.027-0.326 0.185-0.326 0.376 0 0.107 0.044 0.203 0.115 0.272l0 0 1.458 1.421c0.071 0.069 0.115 0.165 0.115 0.272 0 0.023-0.002 0.045-0.006 0.067l0-0.002-0.289 1.683c0.927-0.285 1.792-0.722 2.522-1.407 0.802-0.8 1.555-1.789 1.877-2.917z"></path>
<path fill="#d8b298" style="fill: var(--color25, #d8b298)" d="M8.47 32c-4.67 0-8.47-3.8-8.47-8.47s3.8-8.47 8.47-8.47 8.47 3.8 8.47 8.47-3.8 8.47-8.47 8.47zM8.47 15.209c-4.588 0-8.32 3.732-8.32 8.32s3.732 8.32 8.32 8.32 8.32-3.732 8.32-8.32-3.732-8.319-8.32-8.319z"></path>
<path fill="#7597bc" style="fill: var(--color9, #7597bc)" d="M10.95 14.171h-4.96l6.603-14.171 3.316 3.527-4.959 10.643z"></path>
<path fill="#497291" style="fill: var(--color10, #497291)" d="M4.402 0h8.191l-1.896 4.068h-4.4l-1.896-4.068z"></path>
<path fill="#3a637c" style="fill: var(--color11, #3a637c)" d="M10.698 4.068l1.896-4.068h-1.588l-0.307 4.068z"></path>
</symbol>
</defs>
</svg>
